<svg xmlns="http://www.w3.org/2000/svg" width="349" height="400" viewBox="0 0 349 400">
  <g id="Grupo_121" data-name="Grupo 121" transform="translate(-405 -12154)">
    <rect id="dentist-g9b1785507_1920" width="349" height="400" transform="translate(405 12154)" fill="#ebf0f3"/>
    <g id="image" transform="translate(510.995 12291.75)">
      <path id="Caminho_3" data-name="Caminho 3" d="M87.061,18.157a4.4,4.4,0,0,1,5.072-.817l33.21,17.119V74.024H2.255V56.44L25.521,35.745a4.4,4.4,0,0,1,5.537-.547L54.445,50.785l32.62-32.62Z" transform="translate(4.777 40.372)" fill="#5c979f"/>
      <path id="Caminho_2" data-name="Caminho 2" d="M120.005,10.821H17.148a8.571,8.571,0,0,0-8.571,8.571v85.714a8.571,8.571,0,0,0,8.571,8.571H120.005a8.571,8.571,0,0,0,8.571-8.571V19.393a8.571,8.571,0,0,0-8.571-8.571ZM17.148,2.25A17.143,17.143,0,0,0,0,19.393v85.714A17.143,17.143,0,0,0,17.148,122.25H120.005a17.143,17.143,0,0,0,17.143-17.143V19.393A17.143,17.143,0,0,0,120.005,2.25H17.148Z" transform="translate(0 0)" fill="#5c979f" fill-rule="evenodd"/>
      <path id="Caminho_4" data-name="Caminho 4" d="M19.612,34.714A12.857,12.857,0,1,0,6.755,21.857,12.857,12.857,0,0,0,19.612,34.714Z" transform="translate(18.964 18.964)" fill="#5c979f" fill-rule="evenodd"/>
    </g>
  </g>
</svg>
