<svg xmlns="http://www.w3.org/2000/svg" width="24" height="24" viewBox="0 0 24 24"><defs><style>.a{fill:#5c979f;}</style></defs><path class="a" d="M16,12a4,4,0,0,0-4-4,4,4,0,0,0-4,4,4,4,0,0,0,4,4,4,4,0,0,0,4-4Zm2.156,0A6.134,6.134,0,0,1,12,18.156,6.134,6.134,0,0,1,5.844,12,6.134,6.134,0,0,1,12,5.844,6.134,6.134,0,0,1,18.156,12Zm1.687-6.406a1.437,1.437,0,1,1-2.453-1.015,1.437,1.437,0,0,1,2.453,1.015ZM12,2.156l-1.2-.008q-1.086-.008-1.649,0t-1.508.047a12.322,12.322,0,0,0-1.609.156,6.21,6.21,0,0,0-1.117.29A4.087,4.087,0,0,0,2.641,4.922a6.27,6.27,0,0,0-.289,1.117A12.322,12.322,0,0,0,2.2,7.649q-.039.945-.047,1.508t0,1.649q.008,1.086.008,1.2t-.008,1.2q-.008,1.086,0,1.649T2.2,16.353a12.322,12.322,0,0,0,.156,1.609,6.233,6.233,0,0,0,.289,1.116,4.087,4.087,0,0,0,2.281,2.281,6.27,6.27,0,0,0,1.117.289,12.322,12.322,0,0,0,1.609.156q.945.039,1.508.047t1.649,0l1.2-.008,1.2.008q1.086.008,1.649,0t1.508-.047a12.321,12.321,0,0,0,1.609-.156,6.271,6.271,0,0,0,1.117-.289,4.087,4.087,0,0,0,2.281-2.281,6.27,6.27,0,0,0,.289-1.117,12.322,12.322,0,0,0,.156-1.609q.039-.945.047-1.508t0-1.649q-.008-1.086-.008-1.2t.008-1.2q.008-1.086,0-1.649t-.047-1.508a12.321,12.321,0,0,0-.156-1.609,6.15,6.15,0,0,0-.291-1.116,4.087,4.087,0,0,0-2.281-2.281,6.27,6.27,0,0,0-1.117-.289A12.322,12.322,0,0,0,16.351,2.2q-.945-.039-1.508-.047t-1.649,0L12,2.157ZM24,12q0,3.578-.078,4.953a7.329,7.329,0,0,1-1.937,5.031,7.329,7.329,0,0,1-5.031,1.937Q15.578,24,12,24t-4.953-.078a7.329,7.329,0,0,1-5.031-1.937A7.329,7.329,0,0,1,.078,16.953Q0,15.578,0,12T.078,7.047A7.329,7.329,0,0,1,2.015,2.015,7.329,7.329,0,0,1,7.047.078Q8.422,0,12,0t4.953.078a7.329,7.329,0,0,1,5.031,1.937,7.329,7.329,0,0,1,1.937,5.031Q24,8.422,24,12Z"/></svg>