<svg xmlns="http://www.w3.org/2000/svg" width="25.112" height="24" viewBox="0 0 25.112 24"><defs><style>.a{fill:#5c979f;}</style></defs><path class="a" d="M5.706,8.267v16.2H.31V8.267H5.705Zm.343-5a2.588,2.588,0,0,1-.826,1.994,3.083,3.083,0,0,1-2.215.8H2.976a2.952,2.952,0,0,1-2.158-.8A2.678,2.678,0,0,1,0,3.265a2.634,2.634,0,0,1,.842-2,3.076,3.076,0,0,1,2.2-.793,2.99,2.99,0,0,1,2.174.793,2.728,2.728,0,0,1,.834,2ZM25.112,15.182v9.287H19.733V15.8a4.729,4.729,0,0,0-.662-2.689A2.327,2.327,0,0,0,17,12.142a2.647,2.647,0,0,0-1.725.564,3.479,3.479,0,0,0-1.038,1.4,3.948,3.948,0,0,0-.18,1.324v9.041H8.681q.033-6.524.033-10.578T8.7,9.052l-.016-.785h5.379v2.354h-.033a7.156,7.156,0,0,1,.67-.916,6.94,6.94,0,0,1,.924-.85,4.256,4.256,0,0,1,1.422-.712,6.437,6.437,0,0,1,1.872-.253,5.806,5.806,0,0,1,4.5,1.855,7.789,7.789,0,0,1,1.7,5.437Z" transform="translate(0 -0.469)"/></svg>