<svg xmlns="http://www.w3.org/2000/svg" width="29.514" height="24" viewBox="0 0 29.514 24"><defs><style>.a{fill:#5c979f;}</style></defs><path class="a" d="M12.271,30C23.408,30,29.5,20.763,29.5,12.769c0-.26,0-.519-.012-.779a12.337,12.337,0,0,0,3.024-3.144,12.274,12.274,0,0,1-3.483.958A6.093,6.093,0,0,0,31.7,6.449a12.047,12.047,0,0,1-3.852,1.466,6.055,6.055,0,0,0-10.474,4.145,6.691,6.691,0,0,0,.153,1.381A17.2,17.2,0,0,1,5.043,7.11,6.073,6.073,0,0,0,6.921,15.2a6.125,6.125,0,0,1-2.741-.756v.083a6.07,6.07,0,0,0,4.855,5.941,5.9,5.9,0,0,1-1.594.213,5.975,5.975,0,0,1-1.136-.106,6.056,6.056,0,0,0,5.658,4.206,12.146,12.146,0,0,1-7.523,2.6A11.65,11.65,0,0,1,3,27.295,17.227,17.227,0,0,0,12.272,30" transform="translate(-3 -6)"/></svg>