<svg xmlns="http://www.w3.org/2000/svg" xmlns:xlink="http://www.w3.org/1999/xlink" width="440" height="210" viewBox="0 0 440 210"><defs><style>.a{fill:none;}.b{clip-path:url(#a);}.c{fill:#ddedef;}</style><clipPath id="a"><rect class="a" width="440" height="210"/></clipPath></defs><g class="b"><g transform="translate(-1056 -344)"><circle class="c" cx="5" cy="5" r="5" transform="translate(1056 344)"/></g><g transform="translate(-1023 -344)"><circle class="c" cx="5" cy="5" r="5" transform="translate(1056 344)"/></g><g transform="translate(-990 -344)"><circle class="c" cx="5" cy="5" r="5" transform="translate(1056 344)"/></g><g transform="translate(-957 -344)"><circle class="c" cx="5" cy="5" r="5" transform="translate(1056 344)"/></g><g transform="translate(-924 -344)"><circle class="c" cx="5" cy="5" r="5" transform="translate(1056 344)"/></g><g transform="translate(-891 -344)"><circle class="c" cx="5" cy="5" r="5" transform="translate(1056 344)"/></g><g transform="translate(-858 -344)"><circle class="c" cx="5" cy="5" r="5" transform="translate(1056 344)"/></g><g transform="translate(-825 -344)"><circle class="c" cx="5" cy="5" r="5" transform="translate(1056 344)"/></g><g transform="translate(-792 -344)"><circle class="c" cx="5" cy="5" r="5" transform="translate(1056 344)"/></g><g transform="translate(-759 -344)"><circle class="c" cx="5" cy="5" r="5" transform="translate(1056 344)"/></g><g transform="translate(-726 -344)"><circle class="c" cx="5" cy="5" r="5" transform="translate(1056 344)"/></g><g transform="translate(-693 -344)"><circle class="c" cx="5" cy="5" r="5" transform="translate(1056 344)"/></g><g transform="translate(-660 -344)"><circle class="c" cx="5" cy="5" r="5" transform="translate(1056 344)"/></g><g transform="translate(-627 -344)"><circle class="c" cx="5" cy="5" r="5" transform="translate(1056 344)"/></g><g transform="translate(-1056 -314)"><circle class="c" cx="5" cy="5" r="5" transform="translate(1056 344)"/></g><g transform="translate(-1023 -314)"><circle class="c" cx="5" cy="5" r="5" transform="translate(1056 344)"/></g><g transform="translate(-990 -314)"><circle class="c" cx="5" cy="5" r="5" transform="translate(1056 344)"/></g><g transform="translate(-957 -314)"><circle class="c" cx="5" cy="5" r="5" transform="translate(1056 344)"/></g><g transform="translate(-924 -314)"><circle class="c" cx="5" cy="5" r="5" transform="translate(1056 344)"/></g><g transform="translate(-891 -314)"><circle class="c" cx="5" cy="5" r="5" transform="translate(1056 344)"/></g><g transform="translate(-858 -314)"><circle class="c" cx="5" cy="5" r="5" transform="translate(1056 344)"/></g><g transform="translate(-825 -314)"><circle class="c" cx="5" cy="5" r="5" transform="translate(1056 344)"/></g><g transform="translate(-792 -314)"><circle class="c" cx="5" cy="5" r="5" transform="translate(1056 344)"/></g><g transform="translate(-759 -314)"><circle class="c" cx="5" cy="5" r="5" transform="translate(1056 344)"/></g><g transform="translate(-726 -314)"><circle class="c" cx="5" cy="5" r="5" transform="translate(1056 344)"/></g><g transform="translate(-693 -314)"><circle class="c" cx="5" cy="5" r="5" transform="translate(1056 344)"/></g><g transform="translate(-660 -314)"><circle class="c" cx="5" cy="5" r="5" transform="translate(1056 344)"/></g><g transform="translate(-627 -314)"><circle class="c" cx="5" cy="5" r="5" transform="translate(1056 344)"/></g><g transform="translate(-1056 -284)"><circle class="c" cx="5" cy="5" r="5" transform="translate(1056 344)"/></g><g transform="translate(-1023 -284)"><circle class="c" cx="5" cy="5" r="5" transform="translate(1056 344)"/></g><g transform="translate(-990 -284)"><circle class="c" cx="5" cy="5" r="5" transform="translate(1056 344)"/></g><g transform="translate(-957 -284)"><circle class="c" cx="5" cy="5" r="5" transform="translate(1056 344)"/></g><g transform="translate(-924 -284)"><circle class="c" cx="5" cy="5" r="5" transform="translate(1056 344)"/></g><g transform="translate(-891 -284)"><circle class="c" cx="5" cy="5" r="5" transform="translate(1056 344)"/></g><g transform="translate(-858 -284)"><circle class="c" cx="5" cy="5" r="5" transform="translate(1056 344)"/></g><g transform="translate(-825 -284)"><circle class="c" cx="5" cy="5" r="5" transform="translate(1056 344)"/></g><g transform="translate(-792 -284)"><circle class="c" cx="5" cy="5" r="5" transform="translate(1056 344)"/></g><g transform="translate(-759 -284)"><circle class="c" cx="5" cy="5" r="5" transform="translate(1056 344)"/></g><g transform="translate(-726 -284)"><circle class="c" cx="5" cy="5" r="5" transform="translate(1056 344)"/></g><g transform="translate(-693 -284)"><circle class="c" cx="5" cy="5" r="5" transform="translate(1056 344)"/></g><g transform="translate(-660 -284)"><circle class="c" cx="5" cy="5" r="5" transform="translate(1056 344)"/></g><g transform="translate(-627 -284)"><circle class="c" cx="5" cy="5" r="5" transform="translate(1056 344)"/></g><g transform="translate(-1056 -254)"><circle class="c" cx="5" cy="5" r="5" transform="translate(1056 344)"/></g><g transform="translate(-1023 -254)"><circle class="c" cx="5" cy="5" r="5" transform="translate(1056 344)"/></g><g transform="translate(-990 -254)"><circle class="c" cx="5" cy="5" r="5" transform="translate(1056 344)"/></g><g transform="translate(-957 -254)"><circle class="c" cx="5" cy="5" r="5" transform="translate(1056 344)"/></g><g transform="translate(-924 -254)"><circle class="c" cx="5" cy="5" r="5" transform="translate(1056 344)"/></g><g transform="translate(-891 -254)"><circle class="c" cx="5" cy="5" r="5" transform="translate(1056 344)"/></g><g transform="translate(-858 -254)"><circle class="c" cx="5" cy="5" r="5" transform="translate(1056 344)"/></g><g transform="translate(-825 -254)"><circle class="c" cx="5" cy="5" r="5" transform="translate(1056 344)"/></g><g transform="translate(-792 -254)"><circle class="c" cx="5" cy="5" r="5" transform="translate(1056 344)"/></g><g transform="translate(-759 -254)"><circle class="c" cx="5" cy="5" r="5" transform="translate(1056 344)"/></g><g transform="translate(-726 -254)"><circle class="c" cx="5" cy="5" r="5" transform="translate(1056 344)"/></g><g transform="translate(-693 -254)"><circle class="c" cx="5" cy="5" r="5" transform="translate(1056 344)"/></g><g transform="translate(-660 -254)"><circle class="c" cx="5" cy="5" r="5" transform="translate(1056 344)"/></g><g transform="translate(-627 -254)"><circle class="c" cx="5" cy="5" r="5" transform="translate(1056 344)"/></g><g transform="translate(-1056 -224)"><circle class="c" cx="5" cy="5" r="5" transform="translate(1056 344)"/></g><g transform="translate(-1023 -224)"><circle class="c" cx="5" cy="5" r="5" transform="translate(1056 344)"/></g><g transform="translate(-990 -224)"><circle class="c" cx="5" cy="5" r="5" transform="translate(1056 344)"/></g><g transform="translate(-957 -224)"><circle class="c" cx="5" cy="5" r="5" transform="translate(1056 344)"/></g><g transform="translate(-924 -224)"><circle class="c" cx="5" cy="5" r="5" transform="translate(1056 344)"/></g><g transform="translate(-891 -224)"><circle class="c" cx="5" cy="5" r="5" transform="translate(1056 344)"/></g><g transform="translate(-858 -224)"><circle class="c" cx="5" cy="5" r="5" transform="translate(1056 344)"/></g><g transform="translate(-825 -224)"><circle class="c" cx="5" cy="5" r="5" transform="translate(1056 344)"/></g><g transform="translate(-792 -224)"><circle class="c" cx="5" cy="5" r="5" transform="translate(1056 344)"/></g><g transform="translate(-759 -224)"><circle class="c" cx="5" cy="5" r="5" transform="translate(1056 344)"/></g><g transform="translate(-726 -224)"><circle class="c" cx="5" cy="5" r="5" transform="translate(1056 344)"/></g><g transform="translate(-693 -224)"><circle class="c" cx="5" cy="5" r="5" transform="translate(1056 344)"/></g><g transform="translate(-660 -224)"><circle class="c" cx="5" cy="5" r="5" transform="translate(1056 344)"/></g><g transform="translate(-627 -224)"><circle class="c" cx="5" cy="5" r="5" transform="translate(1056 344)"/></g><g transform="translate(-1056 -194)"><circle class="c" cx="5" cy="5" r="5" transform="translate(1056 344)"/></g><g transform="translate(-1023 -194)"><circle class="c" cx="5" cy="5" r="5" transform="translate(1056 344)"/></g><g transform="translate(-990 -194)"><circle class="c" cx="5" cy="5" r="5" transform="translate(1056 344)"/></g><g transform="translate(-957 -194)"><circle class="c" cx="5" cy="5" r="5" transform="translate(1056 344)"/></g><g transform="translate(-924 -194)"><circle class="c" cx="5" cy="5" r="5" transform="translate(1056 344)"/></g><g transform="translate(-891 -194)"><circle class="c" cx="5" cy="5" r="5" transform="translate(1056 344)"/></g><g transform="translate(-858 -194)"><circle class="c" cx="5" cy="5" r="5" transform="translate(1056 344)"/></g><g transform="translate(-825 -194)"><circle class="c" cx="5" cy="5" r="5" transform="translate(1056 344)"/></g><g transform="translate(-792 -194)"><circle class="c" cx="5" cy="5" r="5" transform="translate(1056 344)"/></g><g transform="translate(-759 -194)"><circle class="c" cx="5" cy="5" r="5" transform="translate(1056 344)"/></g><g transform="translate(-726 -194)"><circle class="c" cx="5" cy="5" r="5" transform="translate(1056 344)"/></g><g transform="translate(-693 -194)"><circle class="c" cx="5" cy="5" r="5" transform="translate(1056 344)"/></g><g transform="translate(-660 -194)"><circle class="c" cx="5" cy="5" r="5" transform="translate(1056 344)"/></g><g transform="translate(-627 -194)"><circle class="c" cx="5" cy="5" r="5" transform="translate(1056 344)"/></g><g transform="translate(-1056 -164)"><circle class="c" cx="5" cy="5" r="5" transform="translate(1056 344)"/></g><g transform="translate(-1023 -164)"><circle class="c" cx="5" cy="5" r="5" transform="translate(1056 344)"/></g><g transform="translate(-990 -164)"><circle class="c" cx="5" cy="5" r="5" transform="translate(1056 344)"/></g><g transform="translate(-957 -164)"><circle class="c" cx="5" cy="5" r="5" transform="translate(1056 344)"/></g><g transform="translate(-924 -164)"><circle class="c" cx="5" cy="5" r="5" transform="translate(1056 344)"/></g><g transform="translate(-891 -164)"><circle class="c" cx="5" cy="5" r="5" transform="translate(1056 344)"/></g><g transform="translate(-858 -164)"><circle class="c" cx="5" cy="5" r="5" transform="translate(1056 344)"/></g><g transform="translate(-825 -164)"><circle class="c" cx="5" cy="5" r="5" transform="translate(1056 344)"/></g><g transform="translate(-792 -164)"><circle class="c" cx="5" cy="5" r="5" transform="translate(1056 344)"/></g><g transform="translate(-759 -164)"><circle class="c" cx="5" cy="5" r="5" transform="translate(1056 344)"/></g><g transform="translate(-726 -164)"><circle class="c" cx="5" cy="5" r="5" transform="translate(1056 344)"/></g><g transform="translate(-693 -164)"><circle class="c" cx="5" cy="5" r="5" transform="translate(1056 344)"/></g><g transform="translate(-660 -164)"><circle class="c" cx="5" cy="5" r="5" transform="translate(1056 344)"/></g><g transform="translate(-627 -164)"><circle class="c" cx="5" cy="5" r="5" transform="translate(1056 344)"/></g></g></svg>