<svg xmlns="http://www.w3.org/2000/svg" width="34.133" height="24" viewBox="0 0 34.133 24"><defs><style>.a{fill:#5c979f;}</style></defs><path class="a" d="M34.47,8.255a4.289,4.289,0,0,0-3.018-3.037C28.79,4.5,18.117,4.5,18.117,4.5s-10.674,0-13.336.718A4.289,4.289,0,0,0,1.763,8.255a44.992,44.992,0,0,0-.713,8.269,44.992,44.992,0,0,0,.713,8.269,4.225,4.225,0,0,0,3.018,2.989c2.662.718,13.336.718,13.336.718s10.674,0,13.336-.718a4.225,4.225,0,0,0,3.018-2.989,44.992,44.992,0,0,0,.713-8.269,44.992,44.992,0,0,0-.713-8.269ZM14.626,21.6V11.449l8.921,5.075L14.626,21.6Z" transform="translate(-1.05 -4.5)"/></svg>